<svg id="Group_2762" data-name="Group 2762" xmlns="http://www.w3.org/2000/svg" width="39.333" height="32" viewBox="0 0 39.333 32">
  <g id="baseline-notification_important-24px">
    <path id="Path_11354" data-name="Path 11354" d="M20.8,19.669V13.31c0-3.9-1.968-7.173-5.4-8.038V4.408a1.8,1.8,0,1,0-3.6,0v.865c-3.444.865-5.4,4.121-5.4,8.038v6.359L4,22.212v1.272H23.2V22.212Zm-6,0H12.4V17.125h2.4Zm0-5.087H12.4V9.495h2.4ZM13.6,27.3A2.482,2.482,0,0,0,16,24.756H11.2A2.474,2.474,0,0,0,13.6,27.3Z" transform="translate(2.4 1.5)" fill="#0a4b6d"/>
    <path id="Path_11355" data-name="Path 11355" d="M0,0H32V32H0Z" fill="none"/>
  </g>
  <rect id="Rectangle_202" data-name="Rectangle 202" width="7" height="13" transform="translate(13.333 10)" fill="#0a4b6d"/>
  <rect id="Rectangle_203" data-name="Rectangle 203" width="21" height="12" rx="6" transform="translate(18.333 2)" fill="#ff8181"/>
  <text id="_10" data-name="10" transform="translate(28.333 11)" fill="#fff" font-size="8" font-family="Lato-Regular, Lato"><tspan x="-4.64" y="0">10</tspan></text>
</svg>
